<?xml version="1.0" encoding="UTF-8"?>
<svg width="1526px" height="428px" viewBox="0 0 1526 428" version="1.1" xmlns="http://www.w3.org/2000/svg" xmlns:xlink="http://www.w3.org/1999/xlink">
    <title>StellarChain Logo Final RGB</title>
    <g id="Page-1" stroke="none" stroke-width="1" fill="none" fill-rule="evenodd">
        <g id="StellarChain-Logo-Final-RGB" transform="translate(0.6, 0)" fill="#FFFFFF">
            <g id="Group" transform="translate(0, 29.7)" fill-rule="nonzero">
                <path d="M218.3,1.42108547e-14 C243.2,1.42108547e-14 267.3,4.9 290.1,14.5 C302.2,19.6 313.8,26.1 324.6,33.7 L322.3,34.9 L292.7,50 C270.1,37.4 244.4,30.8 218.3,30.8 C217.9,30.8 217.5,30.8 217.1,30.8 C197,31 177.4,35 158.9,42.7 C140.4,50.5 123.8,61.6 109.6,75.8 C80.6,104.9 64.6,143.5 64.6,184.5 C64.6,191.2 65,197.9 65.9,204.6 L66.2,206.7 L68.1,205.7 L323.6,75.4 L376.5,48.4 L436.4,17.8 L436.4,52.4 L374.7,83.9 L344.4,99.3 L75.1,236.8 L73.9,237.5 L73.9,237.5 L60.1,244.5 L46.1,251.6 L46.1,251.5 L44.8,252.1 L-4.26325641e-14,275 L-4.26325641e-14,240.4 L15.2,232.7 C27.9,226.2 35.5,212.8 34.4,198.5 C34.1,193.8 33.9,189.1 33.9,184.4 C33.9,159.5 38.8,135.3 48.4,112.5 C57.7,90.5 71,70.8 87.9,53.8 C104.8,36.9 124.5,23.5 146.5,14.2 C169.2,4.9 193.4,1.42108547e-14 218.3,1.42108547e-14" id="Path"></path>
                <path d="M436.5,98.7 L436.5,133.3 L421.3,141 C408.6,147.5 401,160.9 402.1,175.2 C402.5,179.9 402.6,184.7 402.6,189.4 C402.6,214.3 397.7,238.5 388.1,261.3 C378.8,283.3 365.5,303 348.6,320 C331.7,337 311.9,350.3 290,359.6 C267.3,369.2 243.1,374.1 218.2,374.1 C193.3,374.1 169.2,369.2 146.4,359.6 C134.2,354.4 122.6,347.9 111.8,340.3 L142.4,324.7 L143.6,324.1 C166.2,336.7 192,343.4 218.2,343.4 C218.6,343.4 218.9,343.4 219.3,343.4 C239.4,343.3 259,339.3 277.5,331.5 C296,323.7 312.6,312.6 326.8,298.4 C355.8,269.4 371.8,230.7 371.8,189.7 C371.8,183 371.4,176.2 370.5,169.5 L370.2,167.4 L368.3,168.4 L112.6,298.5 L59.7,325.5 L-4.26325641e-14,355.9 L-4.26325641e-14,321.3 L61.5,289.9 L91.8,274.5 L436.5,98.7" id="Path"></path>
            </g>
            <text id="StellarChain" font-family="SFPro-Medium, SF Pro" font-size="200" font-weight="400" letter-spacing="-0.155642023">
                <tspan x="474.4" y="190">StellarChain</tspan>
            </text>
            <text id="Explorer" font-family="SFPro-Medium, SF Pro" font-size="200" font-weight="400" letter-spacing="-0.155642023">
                <tspan x="474.4" y="380">Explorer</tspan>
            </text>
        </g>
    </g>
</svg>