<?xml version="1.0" encoding="UTF-8"?>
<svg width="1516px" height="386px" viewBox="0 0 1516 386" version="1.1" xmlns="http://www.w3.org/2000/svg" xmlns:xlink="http://www.w3.org/1999/xlink">
    <title>StellarChain Logo Final RGB</title>
    <g id="Page-1" stroke="none" stroke-width="1" fill="none" fill-rule="evenodd">
        <g id="StellarChain-Logo-Final-RGB" transform="translate(0.6, 0)" fill="#FFFFFF" fill-rule="nonzero">
            <g id="Group" transform="translate(0, 0.7)">
                <path d="M218.3,1.42108547e-14 C243.2,1.42108547e-14 267.3,4.9 290.1,14.5 C302.2,19.6 313.8,26.1 324.6,33.7 L322.3,34.9 L292.7,50 C270.1,37.4 244.4,30.8 218.3,30.8 C217.9,30.8 217.5,30.8 217.1,30.8 C197,31 177.4,35 158.9,42.7 C140.4,50.5 123.8,61.6 109.6,75.8 C80.6,104.9 64.6,143.5 64.6,184.5 C64.6,191.2 65,197.9 65.9,204.6 L66.2,206.7 L68.1,205.7 L323.6,75.4 L376.5,48.4 L436.4,17.8 L436.4,52.4 L374.7,83.9 L344.4,99.3 L75.1,236.8 L73.9,237.5 L73.9,237.5 L60.1,244.5 L46.1,251.6 L46.1,251.5 L44.8,252.1 L-4.26325641e-14,275 L-4.26325641e-14,240.4 L15.2,232.7 C27.9,226.2 35.5,212.8 34.4,198.5 C34.1,193.8 33.9,189.1 33.9,184.4 C33.9,159.5 38.8,135.3 48.4,112.5 C57.7,90.5 71,70.8 87.9,53.8 C104.8,36.9 124.5,23.5 146.5,14.2 C169.2,4.9 193.4,1.42108547e-14 218.3,1.42108547e-14" id="Path"></path>
                <path d="M436.5,98.7 L436.5,133.3 L421.3,141 C408.6,147.5 401,160.9 402.1,175.2 C402.5,179.9 402.6,184.7 402.6,189.4 C402.6,214.3 397.7,238.5 388.1,261.3 C378.8,283.3 365.5,303 348.6,320 C331.7,337 311.9,350.3 290,359.6 C267.3,369.2 243.1,374.1 218.2,374.1 C193.3,374.1 169.2,369.2 146.4,359.6 C134.2,354.4 122.6,347.9 111.8,340.3 L142.4,324.7 L143.6,324.1 C166.2,336.7 192,343.4 218.2,343.4 C218.6,343.4 218.9,343.4 219.3,343.4 C239.4,343.3 259,339.3 277.5,331.5 C296,323.7 312.6,312.6 326.8,298.4 C355.8,269.4 371.8,230.7 371.8,189.7 C371.8,183 371.4,176.2 370.5,169.5 L370.2,167.4 L368.3,168.4 L112.6,298.5 L59.7,325.5 L-4.26325641e-14,355.9 L-4.26325641e-14,321.3 L61.5,289.9 L91.8,274.5 L436.5,98.7" id="Path"></path>
            </g>
            <g id="StellarChain" transform="translate(481.0574, 17.7032)">
                <path d="M54.3609619,145.675659 C43.8354492,145.675659 34.6076965,144.076029 26.6777039,140.87677 C18.7477112,137.677511 12.4786377,133.091482 7.8704834,127.118683 C3.2623291,121.145884 0.671386719,114.042155 0.09765625,105.807495 L0,104.351807 L21.3378906,104.351807 L21.5332031,105.628967 C22.2249349,109.922791 24.0437826,113.638306 26.9897461,116.775513 C29.9357096,119.91272 33.8205973,122.337596 38.6444092,124.05014 C43.468221,125.762685 49.0030924,126.618958 55.2490234,126.618958 C61.541748,126.618958 66.9802348,125.739288 71.5644836,123.97995 C76.1487325,122.220612 79.6930949,119.711558 82.1975708,116.452789 C84.7020467,113.194021 85.9542847,109.382629 85.9542847,105.018616 L85.9542847,104.920959 C85.9542847,99.260966 83.9073181,94.7606405 79.813385,91.4199829 C75.7194519,88.0793254 68.9956665,85.4003906 59.6420288,83.3831787 L44.2855835,80.1269531 C30.5007935,77.1738688 20.2267965,72.4667867 13.4635925,66.0057068 C6.70038859,59.5446269 3.31878662,51.1113485 3.31878662,40.7058716 L3.31878662,40.6082153 C3.37168376,32.5505575 5.58268229,25.483195 9.95178223,19.4061279 C14.3208822,13.3290609 20.3488668,8.57543945 28.0357361,5.14526367 C35.7226054,1.71508789 44.5210775,0 54.4311523,0 C64.2313639,0 72.8701274,1.66473389 80.3474426,4.99420166 C87.8247579,8.32366943 93.7489827,12.9748027 98.1201172,18.9476013 C102.491252,24.9204 104.925537,31.8491618 105.422974,39.7338867 L105.52063,41.3238525 L84.1827393,41.3238525 L84.0042114,40.0283813 C83.3724976,35.6165568 81.7492167,31.8583171 79.1343689,28.7536621 C76.5195211,25.6490072 73.09316,23.2566833 68.8552856,21.5766907 C64.6174113,19.896698 59.7066243,19.0567017 54.1229248,19.0567017 C48.3266195,19.0567017 43.2785034,19.9200948 38.9785767,21.6468811 C34.6786499,23.3736674 31.3593547,25.7776896 29.0206909,28.8589478 C26.6820272,31.9402059 25.5126953,35.538737 25.5126953,39.654541 L25.5126953,39.7521973 C25.5126953,45.0154622 27.5861104,49.3204753 31.7329407,52.6672363 C35.8797709,56.0139974 42.3461914,58.6308797 51.1322021,60.5178833 L66.4886475,63.7756348 C76.2074788,65.8111572 84.1288249,68.5541789 90.2526855,72.0046997 C96.3765462,75.4552205 100.89035,79.7597249 103.794098,84.9182129 C106.697845,90.0767008 108.149719,96.2783813 108.149719,103.523254 L108.149719,103.620911 C108.149719,112.204488 105.990346,119.648743 101.6716,125.953674 C97.3528544,132.258606 91.1750793,137.121836 83.1382751,140.543365 C75.1014709,143.964895 65.5090332,145.675659 54.3609619,145.675659 Z" id="Path"></path>
                <path d="M161.164591,145.321655 C151.007324,145.321655 143.441254,143.027496 138.46638,138.439178 C133.491506,133.850861 131.004069,126.431783 131.004069,116.181946 L131.004069,57.3730469 L116.268656,57.3730469 L116.268656,40.5883789 L131.004069,40.5883789 L131.004069,13.8458252 L152.700541,13.8458252 L152.700541,40.5883789 L171.964762,40.5883789 L171.964762,57.3730469 L152.700541,57.3730469 L152.700541,114.974976 C152.700541,120.187378 153.83961,123.750814 156.117747,125.665283 C158.395884,127.579753 161.771891,128.536987 166.245768,128.536987 C167.370849,128.536987 168.411499,128.488159 169.367716,128.390503 C170.323934,128.292847 171.189616,128.205872 171.964762,128.129578 L171.964762,144.494629 C170.720662,144.672648 169.149007,144.854991 167.249796,145.041656 C165.350586,145.228322 163.322184,145.321655 161.164591,145.321655 Z" id="Path"></path>
                <path d="M230.613942,145.321655 C220.555348,145.321655 211.898274,143.155416 204.64272,138.822937 C197.387166,134.490458 191.815928,128.347778 187.929006,120.394897 C184.042083,112.442017 182.098622,103.064473 182.098622,92.2622681 L182.098622,92.1646118 C182.098622,81.4559937 184.05251,72.0781962 187.960286,64.0312195 C191.868062,55.9842428 197.368093,49.7278849 204.460378,45.262146 C211.552663,40.7964071 219.900238,38.5635376 229.503102,38.5635376 C239.105967,38.5635376 247.38742,40.7107035 254.347463,45.0050354 C261.307505,49.2993673 266.664357,55.3235372 270.418019,63.0775452 C274.171681,70.8315531 276.048512,79.8578898 276.048512,90.1565552 L276.048512,97.3388672 L192.618032,97.3388672 L192.618032,82.3379517 L265.786977,82.3379517 L255.38506,96.2905884 L255.38506,88.117981 C255.38506,80.8842977 254.286428,74.8809814 252.089162,70.1080322 C249.891896,65.335083 246.859212,61.7729187 242.991109,59.4215393 C239.123006,57.0701599 234.666168,55.8944702 229.620595,55.8944702 C224.575022,55.8944702 220.065033,57.1233114 216.090627,59.5809937 C212.116221,62.0386759 208.990458,65.6674703 206.713338,70.4673767 C204.436218,75.2672831 203.297658,81.1508179 203.297658,88.117981 L203.297658,96.3256836 C203.297658,102.973429 204.425791,108.657328 206.682057,113.37738 C208.938324,118.097432 212.145467,121.713003 216.303487,124.224091 C220.461507,126.735179 225.385772,127.990723 231.076283,127.990723 C235.229726,127.990723 238.903534,127.354685 242.097707,126.082611 C245.29188,124.810537 247.941823,123.106639 250.047536,120.970917 C252.153249,118.835195 253.634877,116.475932 254.492421,113.893127 L254.748769,113.121033 L274.922414,113.121033 L274.708791,114.151001 C273.874644,118.198649 272.290273,122.090149 269.955678,125.8255 C267.621083,129.560852 264.568308,132.90151 260.797353,135.847473 C257.026397,138.793437 252.612538,141.108958 247.555776,142.794037 C242.499013,144.479116 236.851735,145.321655 230.613942,145.321655 Z" id="Path"></path>
                <polygon id="Path" points="292.895 143.296814 292.895 2.37884521 314.112346 2.37884521 314.112346 143.296814"></polygon>
                <polygon id="Path" points="336.352887 143.296814 336.352887 2.37884521 357.570233 2.37884521 357.570233 143.296814"></polygon>
                <path d="M409.228194,145.143127 C402.426843,145.143127 396.448195,143.843587 391.29225,141.244507 C386.136305,138.645426 382.118412,135.007985 379.23857,130.332184 C376.358728,125.656382 374.918807,120.252482 374.918807,114.120483 L374.918807,113.943481 C374.918807,107.933553 376.421289,102.759043 379.426253,98.4199524 C382.431217,94.0808614 386.788619,90.6476339 392.498457,88.1202698 C398.208296,85.5929057 405.104252,84.0830485 413.186324,83.5906982 L451.96501,81.300354 L451.96501,96.1486816 L415.998519,98.3856201 C409.693587,98.7528483 404.830356,100.25533 401.408827,102.893066 C397.987298,105.530802 396.276534,109.035238 396.276534,113.406372 L396.276534,113.583374 C396.276534,118.0837 397.981449,121.641032 401.39128,124.255371 C404.80111,126.86971 409.345178,128.17688 415.023482,128.17688 C419.968347,128.17688 424.402805,127.161153 428.326857,125.1297 C432.250909,123.098246 435.361668,120.31428 437.659133,116.777802 C439.956598,113.241323 441.10533,109.264628 441.10533,104.847717 L441.10533,74.2233276 C441.10533,68.598938 439.338617,64.1708374 435.80519,60.9390259 C432.271763,57.7072144 427.23153,56.0913086 420.684493,56.0913086 C414.615564,56.0913086 409.737329,57.3908488 406.049788,59.9899292 C402.362247,62.5890096 400.078007,65.9525553 399.197066,70.0805664 L399.001753,70.9777832 L379.050887,70.9777832 L379.148543,69.8669434 C379.680566,63.945516 381.674127,58.6257935 385.129225,53.9077759 C388.584324,49.1897583 393.367191,45.4528809 399.477828,42.6971436 C405.588464,39.9414062 412.847579,38.5635376 421.255171,38.5635376 C429.633264,38.5635376 436.888055,39.9635315 443.019545,42.7635193 C449.151035,45.5635071 453.901351,49.504598 457.270491,54.586792 C460.639632,59.668986 462.324202,65.6428019 462.324202,72.5082397 L462.324202,143.296814 L441.10533,143.296814 L441.10533,127.133179 L440.642989,127.133179 C438.678674,130.784098 436.101719,133.960215 432.912123,136.66153 C429.722528,139.362844 426.119928,141.451772 422.104323,142.928314 C418.088718,144.404856 413.796675,145.143127 409.228194,145.143127 Z" id="Path"></path>
                <path d="M482.551036,143.296814 L482.551036,40.5883789 L503.768382,40.5883789 L503.768382,58.1695557 L504.230723,58.1695557 C505.863414,52.0955404 508.754191,47.3093669 512.903056,43.8110352 C517.051921,40.3127035 522.056549,38.5635376 527.916942,38.5635376 C529.449941,38.5635376 530.857565,38.6538188 532.139812,38.8343811 C533.422058,39.0149434 534.466014,39.2064412 535.271678,39.4088745 L535.271678,59.0637207 C534.43041,58.7198893 533.149689,58.4322611 531.429515,58.2008362 C529.709341,57.9694112 527.807587,57.8536987 525.724254,57.8536987 C521.243256,57.8536987 517.349976,58.8063558 514.044414,60.7116699 C510.738851,62.616984 508.199789,65.3790792 506.427226,68.9979553 C504.654663,72.6168315 503.768382,76.9861857 503.768382,82.1060181 L503.768382,143.296814 L482.551036,143.296814 Z" id="Path"></path>
                <path d="M610.928471,145.675659 C597.657394,145.675659 586.116154,142.704773 576.304753,136.763 C566.493352,130.821228 558.918126,122.40092 553.579075,111.502075 C548.240025,100.603231 545.5705,87.6988729 545.5705,72.7890015 L545.5705,72.6913452 C545.5705,57.7814738 548.243077,44.8933919 553.588231,34.0270996 C558.933384,23.1608073 566.498183,14.7730509 576.282628,8.86383057 C586.067072,2.95461019 597.615686,0 610.928471,0 C621.30343,0 630.658848,1.98669434 638.994725,5.96008301 C647.330601,9.93347168 654.192987,15.4403687 659.581883,22.4807739 C664.970779,29.5211792 668.382898,37.6978556 669.818242,47.0108032 L669.978459,47.9705811 L648.193486,47.9705811 L647.618229,46.0006714 C646.057764,40.4627482 643.60822,35.7215881 640.269597,31.7771912 C636.930974,27.8327942 632.797622,24.7894287 627.869542,22.6470947 C622.941461,20.5047607 617.294438,19.4335938 610.928471,19.4335938 C602.234013,19.4335938 594.676589,21.6148376 588.256199,25.9773254 C581.83581,30.3398132 576.864496,36.4947001 573.342259,44.4419861 C569.820022,52.3892721 568.058903,61.7996216 568.058903,72.6730347 L568.058903,72.7706909 C568.058903,83.6034139 569.820022,93.0290222 573.342259,101.047516 C576.864496,109.06601 581.852086,115.269725 588.305028,119.658661 C594.757969,124.047597 602.305221,126.242065 610.946782,126.242065 C617.187626,126.242065 622.761662,125.179799 627.668889,123.055267 C632.576115,120.930735 636.753972,117.816671 640.202458,113.713074 C643.650944,109.609477 646.240869,104.578654 647.972233,98.6206055 L648.230107,97.7050781 L670.013554,97.7050781 L669.854863,98.6999512 C668.419519,108.054606 665.011723,116.262563 659.631474,123.323822 C654.251225,130.385081 647.389856,135.875702 639.047368,139.795685 C630.704879,143.715668 621.331914,145.675659 610.928471,145.675659 Z" id="Path"></path>
                <path d="M687.873321,143.296814 L687.873321,2.37884521 L709.090667,2.37884521 L709.090667,57.4981689 L709.553008,57.4981689 C712.275176,51.482137 716.344187,46.8223572 721.760039,43.5188293 C727.175892,40.2153015 733.713266,38.5635376 741.372161,38.5635376 C748.729949,38.5635376 755.133046,40.2811686 760.581451,43.7164307 C766.029855,47.1516927 770.26595,51.9528707 773.289733,58.1199646 C776.313516,64.2870585 777.825408,71.5138753 777.825408,79.800415 L777.825408,143.296814 L756.608062,143.296814 L756.608062,83.8043213 C756.608062,75.3173828 754.567707,68.6871847 750.486999,63.9137268 C746.40629,59.140269 740.663136,56.75354 733.257537,56.75354 C728.430673,56.75354 724.200174,57.901001 720.566039,60.1959229 C716.931904,62.4908447 714.110808,65.658315 712.102752,69.6983337 C710.094695,73.7383525 709.090667,78.4342448 709.090667,83.7860107 L709.090667,143.296814 L687.873321,143.296814 Z" id="Path"></path>
                <path d="M828.260067,145.143127 C821.458716,145.143127 815.480068,143.843587 810.324123,141.244507 C805.168178,138.645426 801.150285,135.007985 798.270443,130.332184 C795.3906,125.656382 793.950679,120.252482 793.950679,114.120483 L793.950679,113.943481 C793.950679,107.933553 795.453161,102.759043 798.458126,98.4199524 C801.46309,94.0808614 805.820491,90.6476339 811.53033,88.1202698 C817.240169,85.5929057 824.136125,84.0830485 832.218196,83.5906982 L870.996883,81.300354 L870.996883,96.1486816 L835.030391,98.3856201 C828.72546,98.7528483 823.862229,100.25533 820.4407,102.893066 C817.019171,105.530802 815.308406,109.035238 815.308406,113.406372 L815.308406,113.583374 C815.308406,118.0837 817.013322,121.641032 820.423153,124.255371 C823.832983,126.86971 828.377051,128.17688 834.055355,128.17688 C839.00022,128.17688 843.434678,127.161153 847.35873,125.1297 C851.282782,123.098246 854.39354,120.31428 856.691005,116.777802 C858.98847,113.241323 860.137203,109.264628 860.137203,104.847717 L860.137203,74.2233276 C860.137203,68.598938 858.370489,64.1708374 854.837062,60.9390259 C851.303636,57.7072144 846.263403,56.0913086 839.716365,56.0913086 C833.647436,56.0913086 828.769202,57.3908488 825.081661,59.9899292 C821.39412,62.5890096 819.109879,65.9525553 818.228939,70.0805664 L818.033626,70.9777832 L798.082759,70.9777832 L798.180416,69.8669434 C798.712439,63.945516 800.706,58.6257935 804.161098,53.9077759 C807.616197,49.1897583 812.399064,45.4528809 818.5097,42.6971436 C824.620337,39.9414062 831.879451,38.5635376 840.287044,38.5635376 C848.665137,38.5635376 855.919928,39.9635315 862.051418,42.7635193 C868.182908,45.5635071 872.933223,49.504598 876.302364,54.586792 C879.671505,59.668986 881.356075,65.6428019 881.356075,72.5082397 L881.356075,143.296814 L860.137203,143.296814 L860.137203,127.133179 L859.674862,127.133179 C857.710547,130.784098 855.133592,133.960215 851.943996,136.66153 C848.7544,139.362844 845.1518,141.451772 841.136196,142.928314 C837.120591,144.404856 832.828548,145.143127 828.260067,145.143127 Z" id="Path"></path>
                <path d="M902.458763,143.296814 L902.458763,40.5883789 L923.677635,40.5883789 L923.677635,143.296814 L902.458763,143.296814 Z M913.068199,24.7802734 C909.649213,24.7802734 906.739871,23.5832214 904.340172,21.1891174 C901.940473,18.7950134 900.740624,15.9301758 900.740624,12.5946045 C900.740624,9.19392904 901.940473,6.31306966 904.340172,3.95202637 C906.739871,1.59098307 909.649213,0.410461426 913.068199,0.410461426 C916.5411,0.410461426 919.463921,1.59098307 921.836662,3.95202637 C924.209404,6.31306966 925.395775,9.19392904 925.395775,12.5946045 C925.395775,15.9301758 924.209404,18.7950134 921.836662,21.1891174 C919.463921,23.5832214 916.5411,24.7802734 913.068199,24.7802734 Z" id="Shape"></path>
                <path d="M945.180748,143.296814 L945.180748,40.5883789 L966.398094,40.5883789 L966.398094,56.0623169 L966.860435,56.0623169 C969.582603,50.843811 973.571759,46.6227214 978.827903,43.3990479 C984.084048,40.1753743 990.594973,38.5635376 998.360679,38.5635376 C1009.62472,38.5635376 1018.35681,41.9715881 1024.55697,48.7876892 C1030.75712,55.6037903 1033.8572,64.9312337 1033.8572,76.7700195 L1033.8572,143.296814 L1012.63985,143.296814 L1012.63985,80.8532715 C1012.63985,73.1109619 1010.82533,67.1587626 1007.19628,62.9966736 C1003.56723,58.8345846 998.102806,56.75354 990.803001,56.75354 C985.870343,56.75354 981.573722,57.8610738 977.913139,60.0761414 C974.252555,62.2912089 971.418235,65.3920492 969.410179,69.3786621 C967.402122,73.3652751 966.398094,78.0349731 966.398094,83.3877563 L966.398094,143.296814 L945.180748,143.296814 Z" id="Path"></path>
            </g>
            <g id="Explorer" transform="translate(487.3562, 210.082)">
                <polygon id="Path" points="0 140.917969 0 0 89.5248413 0 89.5248413 18.9361572 21.9467163 18.9361572 21.9467163 59.979248 85.9115601 59.979248 85.9115601 78.3248901 21.9467163 78.3248901 21.9467163 121.981812 89.5248413 121.981812 89.5248413 140.917969"></polygon>
                <polygon id="Path" points="101.608918 140.917969 135.533783 89.6347046 102.068207 38.2095337 125.84903 38.2095337 148.203156 75.3112793 148.665497 75.3112793 170.763276 38.2095337 194.132111 38.2095337 160.426972 88.9343262 193.732331 140.917969 170.426056 140.917969 147.739289 103.123474 147.276948 103.123474 124.5383 140.917969"></polygon>
                <path d="M207.098193,175.097656 L207.098193,38.2095337 L228.315539,38.2095337 L228.315539,55.809021 L228.796191,55.809021 C230.860197,51.7298381 233.459023,48.2355754 236.59267,45.3262329 C239.726316,42.4168905 243.350024,40.1659648 247.463794,38.5734558 C251.577563,36.9809469 256.067208,36.1846924 260.932727,36.1846924 C269.662789,36.1846924 277.24895,38.3494059 283.691211,42.678833 C290.133472,47.0082601 295.118009,53.1697591 298.644824,61.1633301 C302.171639,69.156901 303.935046,78.6178589 303.935046,89.5462036 L303.935046,89.6438599 C303.935046,100.55898 302.164264,110.000102 298.622699,117.967224 C295.081134,125.934347 290.121773,132.088725 283.744617,136.430359 C277.36746,140.771993 269.872851,142.94281 261.260791,142.94281 C256.424772,142.94281 251.914528,142.162832 247.73006,140.602875 C243.545591,139.042918 239.857033,136.820221 236.664386,133.934784 C233.471739,131.049347 230.842903,127.611796 228.777881,123.622131 L228.315539,123.622131 L228.315539,175.097656 L207.098193,175.097656 Z M255.37395,124.752808 C260.909839,124.752808 265.694741,123.324331 269.728656,120.467377 C273.762571,117.610423 276.864683,113.554128 279.034991,108.298492 C281.2053,103.042857 282.290454,96.824646 282.290454,89.6438599 L282.290454,89.5462036 C282.290454,82.2463989 281.202248,75.9689331 279.025836,70.7138062 C276.849424,65.4586792 273.74426,61.4217122 269.710345,58.6029053 C265.67643,55.7840983 260.897632,54.3746948 255.37395,54.3746948 C250.062874,54.3746948 245.360878,55.8237712 241.267962,58.7219238 C237.175047,61.6200765 233.973753,65.6969706 231.664081,70.9526062 C229.354409,76.2082418 228.199573,82.4117025 228.199573,89.5629883 L228.199573,89.6606445 C228.199573,96.7478434 229.367633,102.919261 231.703753,108.174896 C234.039874,113.430532 237.238116,117.507426 241.29848,120.405579 C245.358844,123.303731 250.050667,124.752808 255.37395,124.752808 Z" id="Shape"></path>
                <polygon id="Path" points="320.835965 140.917969 320.835965 0 342.053311 0 342.053311 140.917969"></polygon>
                <path d="M407.741728,142.94281 C397.92524,142.94281 389.356922,140.785472 382.036772,136.470795 C374.716622,132.156118 369.033232,126.00174 364.986601,118.00766 C360.93997,110.01358 358.916655,100.538127 358.916655,89.5812988 L358.916655,89.3859863 C358.916655,78.4118652 360.951923,68.951416 365.022459,61.0046387 C369.092995,53.0578613 374.788338,46.9345093 382.108488,42.6345825 C389.428638,38.3346558 397.946603,36.1846924 407.662382,36.1846924 C417.443266,36.1846924 425.994037,38.3318583 433.314695,42.6261902 C440.635354,46.9205221 446.330697,53.0377706 450.400724,60.9779358 C454.470752,68.918101 456.505766,78.3874512 456.505766,89.3859863 L456.505766,89.5812988 C456.505766,100.603231 454.479653,110.097758 450.427427,118.06488 C446.375202,126.032003 440.702238,132.170105 433.408537,136.479187 C426.114836,140.788269 417.559233,142.94281 407.741728,142.94281 Z M407.839384,125.218201 C413.339669,125.218201 418.105243,123.820496 422.136107,121.025085 C426.16697,118.229675 429.29553,114.1716 431.521788,108.850861 C433.748045,103.530121 434.861174,97.1069336 434.861174,89.5812988 L434.861174,89.3859863 C434.861174,81.8735758 433.741941,75.4699707 431.503477,70.1751709 C429.265013,64.8803711 426.1039,60.845693 422.02014,58.0711365 C417.936379,55.29658 413.15046,53.9093018 407.662382,53.9093018 C402.281116,53.9093018 397.548602,55.3098043 393.464842,58.1108093 C389.381081,60.9118144 386.209542,64.9464925 383.950224,70.2148438 C381.690906,75.483195 380.561247,81.8735758 380.561247,89.3859863 L380.561247,89.5812988 C380.561247,97.1069336 381.687854,103.530121 383.941069,108.850861 C386.194283,114.1716 389.362771,118.229675 393.446531,121.025085 C397.530292,123.820496 402.32791,125.218201 407.839384,125.218201 Z" id="Shape"></path>
                <path d="M472.563064,140.917969 L472.563064,38.2095337 L493.78041,38.2095337 L493.78041,55.7907104 L494.242752,55.7907104 C495.875442,49.7166951 498.76622,44.9305216 502.915084,41.4321899 C507.063949,37.9338582 512.068578,36.1846924 517.92897,36.1846924 C519.46197,36.1846924 520.869593,36.2749736 522.15184,36.4555359 C523.434087,36.6360982 524.478042,36.827596 525.283706,37.0300293 L525.283706,56.6848755 C524.442438,56.3410441 523.161717,56.0534159 521.441543,55.821991 C519.721369,55.590566 517.819615,55.4748535 515.736282,55.4748535 C511.255284,55.4748535 507.362004,56.4275106 504.056442,58.3328247 C500.750879,60.2381388 498.211817,63.000234 496.439254,66.6191101 C494.666692,70.2379862 493.78041,74.6073405 493.78041,79.7271729 L493.78041,140.917969 L472.563064,140.917969 Z" id="Path"></path>
                <path d="M577.710567,142.94281 C567.651973,142.94281 558.994899,140.776571 551.739345,136.444092 C544.48379,132.111613 538.912552,125.968933 535.02563,118.016052 C531.138708,110.063171 529.195247,100.685628 529.195247,89.8834229 L529.195247,89.7857666 C529.195247,79.0771484 531.149135,69.699351 535.056911,61.6523743 C538.964686,53.6053975 544.464717,47.3490397 551.557002,42.8833008 C558.649287,38.4175618 566.996862,36.1846924 576.599727,36.1846924 C586.202591,36.1846924 594.484045,38.3318583 601.444087,42.6261902 C608.404129,46.9205221 613.760982,52.944692 617.514644,60.6987 C621.268306,68.4527079 623.145137,77.4790446 623.145137,87.77771 L623.145137,94.960022 L539.714656,94.960022 L539.714656,79.9591064 L612.883601,79.9591064 L602.481685,93.9117432 L602.481685,85.7391357 C602.481685,78.5054525 601.383052,72.5021362 599.185786,67.729187 C596.988521,62.9562378 593.955836,59.3940735 590.087733,57.0426941 C586.21963,54.6913147 581.762792,53.515625 576.717219,53.515625 C571.671646,53.515625 567.161657,54.7444661 563.187251,57.2021484 C559.212845,59.6598307 556.087082,63.2886251 553.809962,68.0885315 C551.532842,72.8884379 550.394282,78.7719727 550.394282,85.7391357 L550.394282,93.9468384 C550.394282,100.594584 551.522416,106.278483 553.778682,110.998535 C556.034948,115.718587 559.242091,119.334157 563.400111,121.845245 C567.558131,124.356333 572.482397,125.611877 578.172908,125.611877 C582.32635,125.611877 586.000158,124.97584 589.194331,123.703766 C592.388504,122.431691 595.038447,120.727793 597.14416,118.592072 C599.249873,116.45635 600.731502,114.097087 601.589046,111.514282 L601.845393,110.742188 L622.019038,110.742188 L621.805415,111.772156 C620.971268,115.819804 619.386897,119.711304 617.052302,123.446655 C614.717708,127.182007 611.664933,130.522664 607.893977,133.468628 C604.123022,136.414591 599.709163,138.730113 594.6524,140.415192 C589.595637,142.100271 583.94836,142.94281 577.710567,142.94281 Z" id="Path"></path>
                <path d="M639.184434,140.917969 L639.184434,38.2095337 L660.401781,38.2095337 L660.401781,55.7907104 L660.864122,55.7907104 C662.496812,49.7166951 665.38759,44.9305216 669.536455,41.4321899 C673.685319,37.9338582 678.689948,36.1846924 684.55034,36.1846924 C686.08334,36.1846924 687.490963,36.2749736 688.77321,36.4555359 C690.055457,36.6360982 691.099413,36.827596 691.905077,37.0300293 L691.905077,56.6848755 C691.063809,56.3410441 689.783088,56.0534159 688.062913,55.821991 C686.342739,55.590566 684.440986,55.4748535 682.357652,55.4748535 C677.876655,55.4748535 673.983375,56.4275106 670.677812,58.3328247 C667.37225,60.2381388 664.833187,63.000234 663.060625,66.6191101 C661.288062,70.2379862 660.401781,74.6073405 660.401781,79.7271729 L660.401781,140.917969 L639.184434,140.917969 Z" id="Path"></path>
            </g>
        </g>
    </g>
</svg>